<?xml version="1.0" encoding="utf-8"?>
<!-- Generator: Adobe Illustrator 24.2.3, SVG Export Plug-In . SVG Version: 6.00 Build 0)  -->
<svg version="1.1" id="Layer_1" xmlns="http://www.w3.org/2000/svg" xmlns:xlink="http://www.w3.org/1999/xlink" x="0px" y="0px"
	 viewBox="0 0 60 40" style="enable-background:new 0 0 60 40;" xml:space="preserve">
<style type="text/css">
	.st0{fill:#FCFCFC;}
</style>
<polygon class="st0" points="28.2,23.8 19.8,21.8 13.5,27.6 12.8,19.1 5.4,14.9 13.2,11.5 15,3.2 20.6,9.6 29.1,8.7 24.6,16 "/>
<polygon class="st0" points="43.3,21.2 37.7,19.7 33.2,23.4 33,17.6 28.1,14.4 33.6,12.4 35,6.8 38.6,11.4 44.4,11 41.1,15.8 "/>
<polygon class="st0" points="27.6,32.9 25.2,31.1 22.3,32.1 23.3,29.2 21.5,26.8 24.5,26.8 26.2,24.4 27.1,27.2 30,28.1 27.6,29.9 
	"/>
<polygon class="st0" points="33.4,26.2 32.4,26.2 31.8,26.9 31.5,26 30.6,25.6 31.4,25.1 31.5,24.1 32.3,24.7 33.2,24.5 32.9,25.4 
	"/>
<polygon class="st0" points="48.6,15.1 47.7,15.3 47.3,16.1 46.8,15.3 45.8,15.2 46.5,14.5 46.3,13.5 47.2,13.9 48,13.5 47.9,14.4 
	"/>
</svg>
