<?xml version="1.0" encoding="utf-8"?>
<!-- Generator: Adobe Illustrator 20.0.0, SVG Export Plug-In . SVG Version: 6.00 Build 0)  -->
<svg version="1.1" id="Layer_1" xmlns="http://www.w3.org/2000/svg" xmlns:xlink="http://www.w3.org/1999/xlink" x="0px" y="0px"
	 viewBox="0 0 60 40" xml:space="preserve">
<g>
	<g>
		<g>
			<path fill="#FCFCFC" d="M19.9,12.1c0,0-0.2-1.1-2.8-4.4c3.9,1.4,4.8,2,7.1,3.9C22.1,11.7,19.9,12.1,19.9,12.1z"/>
			<path fill="#FCFCFC" d="M43.8,12.2c0,0,0.9-4.1,4.2-7.8c-3.8,1.7-5.8,5-6.6,7.3C42.6,12.1,43.8,12.2,43.8,12.2z"/>
			<g>
				<path fill="#FCFCFC" d="M31.6,18.8c0.1,0.1,0.3,0.1,0.3,0.3l0,0c0.2,0.8,0.4,1.7,0.3,2.6c0,0-0.1,0-0.1,0
					c-1.2-1.5-2.4-2.6-3.7-3.2c0,0,0-0.1,0.1-0.1l0.6-0.1C29.9,18.3,30.8,18.4,31.6,18.8L31.6,18.8z"/>
				<path fill="#FCFCFC" d="M35.8,18.8c-0.1,0.1-0.3,0.1-0.3,0.3l0,0c-0.2,0.8-0.4,1.7-0.3,2.6c0,0,0.1,0,0.1,0
					c1.2-1.5,2.4-2.6,3.7-3.2c0,0,0-0.1-0.1-0.1l-0.6-0.1C37.5,18.3,36.6,18.4,35.8,18.8L35.8,18.8z"/>
			</g>
			<path fill="#FCFCFC" d="M25.4,15.6c0,0,4.2,6.9,4.9,12.1c-8.4-1.3-12.8-0.1-16.9,4.3c-0.8-4.1-0.4-7.3,0.1-9.3
				c2.1,1.3,4.2,3.2,4.2,3.2s-2.1-4.5-4.1-6.6c0.7-2.3,2.3-4.3,2.3-4.3s4,1.9,6.2,6.3c-0.5-4.3-1.8-8.2-1.8-8.2S22,14.4,25.4,15.6z"
				/>
			<path fill="#FCFCFC" d="M13.7,33.2c0,0,2.3-3,6.9-3.5c8-0.8,17.8,8.7,26.9-3.2c-0.5,5.7-6.2,11.7-16,8.9
				c-5.3-1.5-7.4-3.8-11.5-3.8C16.2,31.7,13.7,33.2,13.7,33.2z"/>
			<path fill="#FCFCFC" d="M43.4,14c-0.9,0.2-2.9,1.8-2.9,1.8s-0.7,1.8-1.8,5.9c-0.9,3.6-1.5,6.9-1.5,6.9s6.5-0.3,9.4-3.2
				c-1.3-2.1,0.1-6.7,1.5-8.5c-2.8,1-5.1,5-5.1,5S41.9,17.2,43.4,14z"/>
			<path fill="#FCFCFC" d="M27,10.1c0,0,2.1-2.3,6.1-2.5c4.3-0.2,5.3,0.8,5.3,0.8S36.7,5.2,35.2,5c-1.8-0.2-3.4,0.4-4.7,1.1
				C29.2,6.8,28,7.7,27,10.1z"/>
			<path fill="#FCFCFC" d="M27,1.6c0,0,2.7-0.2,5.2,0.7c-3.9,0.8-7,4.1-8.1,7.3C24,7,23.5,3.8,27,1.6z"/>
		</g>
	</g>
</g>
</svg>
